<svg width="32" height="32" viewBox="0 0 24 24" fill="none" xmlns="http://www.w3.org/2000/svg">
  <path d="M12 2C6.48 2 2 6.48 2 12C2 17.52 6.48 22 12 22C17.52 22 22 17.52 22 12C22 6.48 17.52 2 12 2ZM12 20C7.59 20 4 16.41 4 12C4 7.59 7.59 4 12 4C16.41 4 20 7.59 20 12C20 16.41 16.41 20 12 20Z" fill="#6366f1"/>
  <path d="M8 8L10 10L8 12L6 10L8 8Z" fill="#6366f1"/>
  <path d="M16 8L18 10L16 12L14 10L16 8Z" fill="#6366f1"/>
  <path d="M8 12L10 14L8 16L6 14L8 12Z" fill="#6366f1"/>
  <path d="M16 12L18 14L16 16L14 14L16 12Z" fill="#6366f1"/>
  <path d="M12 10L14 12L12 14L10 12L12 10Z" fill="#6366f1"/>
</svg>
